<?xml version="1.0" encoding="UTF-8" standalone="no"?>
<svg
   xmlns:dc="http://purl.org/dc/elements/1.1/"
   xmlns:cc="http://creativecommons.org/ns#"
   xmlns:rdf="http://www.w3.org/1999/02/22-rdf-syntax-ns#"
   xmlns:svg="http://www.w3.org/2000/svg"
   xmlns="http://www.w3.org/2000/svg"
   xmlns:sodipodi="http://sodipodi.sourceforge.net/DTD/sodipodi-0.dtd"
   xmlns:inkscape="http://www.inkscape.org/namespaces/inkscape"
   version="1.1"
   id="svg3897"
   viewBox="0 0 744.09448819 1052.3622047"
   height="297mm"
   width="210mm"
   inkscape:version="0.91 r13725"
   sodipodi:docname="eclectic_bunny_body.svg">
  <sodipodi:namedview
     pagecolor="#ffffff"
     bordercolor="#666666"
     borderopacity="1"
     objecttolerance="10"
     gridtolerance="10"
     guidetolerance="10"
     inkscape:pageopacity="0"
     inkscape:pageshadow="2"
     inkscape:window-width="1366"
     inkscape:window-height="744"
     id="namedview25"
     showgrid="false"
     inkscape:zoom="0.056568542"
     inkscape:cx="1015.9568"
     inkscape:cy="-1282.4626"
     inkscape:window-x="0"
     inkscape:window-y="24"
     inkscape:window-maximized="1"
     inkscape:current-layer="svg3897" />
  <defs
     id="defs3899" />
  <metadata
     id="metadata3902">
    <rdf:RDF>
      <cc:Work
         rdf:about="">
        <dc:format>image/svg+xml</dc:format>
        <dc:type
           rdf:resource="http://purl.org/dc/dcmitype/StillImage" />
        <dc:title />
      </cc:Work>
    </rdf:RDF>
  </metadata>
  <g
     style="display:none"
     id="layer7">
    <path
       id="path3973-74-8-3"
       d="M 235.91877,444.73038 C 231.2392,528.53795 158.82193,654.79382 40.998054,712.05429 18.856945,564.6318 59.009515,470.28911 134.43222,388.79515 c 21.08383,-22.78101 44.92381,-44.55796 70.92961,-66.2097 60.86694,12.78218 81.31577,23.30819 126.84311,65.98964 53.83719,-29.33554 76.15761,-28.81355 128.03693,-2.50319 C 509.26031,228.09223 574.84516,120.04257 711.07971,23.082305 720.48489,219.07117 693.2513,329.06795 536.34816,509.64194 c 0,0 -40.79986,-22.28444 -60.16249,-28.65613 C 418.60342,462.03711 275.19527,445.30925 183.3681,641.79417 -13.029229,1124.3381 650.7929,1127.7709 612.08049,844.08567 595.98108,728.96837 452.60818,696.05641 391.07462,742.66579 352.97084,771.52799 341.81377,834.381 380.84037,855.82322"
       style="fill:none;fill-rule:evenodd;stroke:#ff0000;stroke-width:20;stroke-linecap:round;stroke-linejoin:miter;stroke-miterlimit:4;stroke-dasharray:none;stroke-opacity:1" />
  </g>
  <g
     style="display:none"
     id="layer4">
    <path
       style="fill:none;fill-rule:evenodd;stroke:#ffffff;stroke-width:20;stroke-linecap:round;stroke-linejoin:round;stroke-miterlimit:4;stroke-dasharray:none;stroke-opacity:1"
       d="M 236.40028,444.73039 C 231.72068,528.53796 159.3034,654.79383 41.479522,712.0543 13.149042,523.421 86.807532,421.69145 205.84328,322.58546"
       id="path4275" />
  </g>
  <g
     style="display:none"
     id="layer5">
    <path
       style="fill:none;fill-rule:evenodd;stroke:#ffffff;stroke-width:20;stroke-linecap:round;stroke-linejoin:round;stroke-miterlimit:4;stroke-dasharray:none;stroke-opacity:1"
       d="m 460.15288,386.24978 c 49.0185,-157.97967 114.6033,-266.02933 250.8379,-362.989594 9.4052,195.988864 -17.8284,305.985644 -174.7316,486.559634"
       id="path4282" />
  </g>
  <g
     style="display:inline"
     id="layer6">
    <path
       style="fill:none;fill-rule:evenodd;stroke:#ffffff;stroke-width:20;stroke-linecap:round;stroke-linejoin:round;stroke-miterlimit:4;stroke-dasharray:none;stroke-opacity:1"
       d="m 205.28771,322.57062 c 60.8669,12.78218 81.3158,23.30819 126.8431,65.98964 53.8372,-29.33554 76.1576,-28.81355 128.0369,-2.50319 m 76.1063,123.57004 c 0,0 -40.7998,-22.28444 -60.1625,-28.65613 -57.5822,-18.9487 -200.9904,-35.67656 -292.8175,160.80836 -196.397353,482.54406 467.4248,485.97686 428.7124,202.2915 -16.0995,-115.1173 -159.4724,-148.02926 -221.0059,-101.41988 -38.1038,28.8622 -49.2609,91.71521 -10.2343,113.15743"
       id="path4285" />
  </g>
</svg>
